<svg width="14" height="16" viewBox="0 0 14 16" fill="none" xmlns="http://www.w3.org/2000/svg">
<path d="M0.516902 6.492C0.596006 6.41467 0.894691 6.084 1.17292 5.812C2.80409 4.10133 7.05933 1.30133 9.28651 0.446667C9.62474 0.309333 10.4799 0.0186667 10.9368 0C11.3746 0 11.7919 0.096 12.1902 0.290667C12.6866 0.562667 13.0849 0.990667 13.3031 1.496C13.4435 1.84667 13.6618 2.896 13.6618 2.91467C13.88 4.06267 14 5.928 14 7.98933C14 9.95333 13.88 11.7427 13.7013 12.908C13.6809 12.9267 13.4626 14.2307 13.224 14.6773C12.7862 15.4933 11.931 16 11.0159 16H10.9368C10.3408 15.98 9.08738 15.4733 9.08738 15.4547C6.98022 14.5987 2.82319 11.936 1.15246 10.1667C1.15246 10.1667 0.681929 9.712 0.47735 9.428C0.158207 9.02 0 8.51467 0 8.00933C0 7.44533 0.178665 6.92 0.516902 6.492" fill="#282828"/>
</svg>
