<svg width="18" height="18" viewBox="0 0 18 18" fill="none" xmlns="http://www.w3.org/2000/svg">
<path d="M17.0338 9.00002C16.544 9.00002 16.1309 9.36364 16.0744 9.84578C15.6532 13.3534 12.6604 16.0714 9.02878 16.0714C5.11497 16.0714 1.93475 12.9014 1.93475 9.00002C1.93475 5.09468 5.11094 1.92861 9.02878 1.92861C10.6773 1.92861 12.1929 2.4891 13.3981 3.42727L12.0397 4.78129C11.4311 5.38798 11.8624 6.42659 12.7229 6.42659H16.7173C17.2514 6.42659 17.6847 5.99467 17.6847 5.46231V1.48263C17.6847 0.622814 16.6428 0.192905 16.0341 0.801609L14.7745 2.05719C13.2207 0.777501 11.2295 0.00607486 9.05901 4.80942e-05C4.05691 -0.0160233 0.00807342 3.9978 1.2023e-05 8.98596C-0.00804938 13.9621 4.03877 18 9.02878 18C13.648 18 17.459 14.5406 17.9931 10.0808C18.0616 9.50627 17.6142 9.00002 17.0338 9.00002Z" fill="#282828"/>
</svg>